<svg xmlns="http://www.w3.org/2000/svg" xmlns:xlink="http://www.w3.org/1999/xlink" viewBox="0 0 24 24"><defs><style>.cls-1,.cls-3{fill:#fff;}.cls-1{opacity:0;}.cls-2{fill:url(#New_Gradient_Swatch_18);}.cls-3{opacity:0.5;}.cls-4{fill:url(#Green_Frame_3);}</style><radialGradient id="New_Gradient_Swatch_18" cx="11.92" cy="4.79" r="23.58" gradientUnits="userSpaceOnUse"><stop offset="0.01" stop-color="#fff"/><stop offset="0.52" stop-color="#b7e060"/><stop offset="1" stop-color="#4ea43f"/></radialGradient><linearGradient id="Green_Frame_3" x1="12" y1="23" x2="12" y2="1" gradientUnits="userSpaceOnUse"><stop offset="0" stop-color="#195c19"/><stop offset="0.41" stop-color="#2d6a2d"/><stop offset="1" stop-color="#6cae40"/></linearGradient></defs><g id="Layer_2" data-name="Layer 2"><g id="add"><g id="add_24"><rect class="cls-1" width="24" height="24"/><polygon class="cls-2" points="8.46 22.42 8.46 15.47 1.4 15.47 1.4 8.42 8.45 8.42 8.45 1.43 15.5 1.43 15.5 8.42 22.5 8.42 22.5 15.46 15.48 15.46 15.48 22.42 8.46 22.42"/><rect class="cls-3" x="2" y="9" width="7" height="1"/><rect class="cls-3" x="15" y="9" width="7" height="1"/><rect class="cls-3" x="9" y="2" width="6" height="1"/><path class="cls-4" d="M15,9h7v6H15v7H9V15H2V9H9V2h6ZM8,1V8H1v8H8v7h8V16h7V8H16V1Z"/></g></g></g></svg>