<svg xmlns="http://www.w3.org/2000/svg" xmlns:xlink="http://www.w3.org/1999/xlink" viewBox="0 0 24 24"><defs><style>.cls-1,.cls-10{fill:none;}.cls-2{isolation:isolate;}.cls-3{clip-path:url(#clip-path);}.cls-4{opacity:0.9;fill:url(#Paper_Frame);}.cls-5{fill:url(#Paper_Fill_3);}.cls-6{mix-blend-mode:multiply;}.cls-7{fill:#a0a0a0;}.cls-8{fill:#bfbfbf;}.cls-9{fill:#666;}.cls-10{stroke:#fff;stroke-miterlimit:10;}.cls-11{fill:url(#Green_Frame_2);}.cls-12{fill:url(#radial-gradient);}.cls-13{fill:#fff;opacity:0.6;}</style><clipPath id="clip-path"><path class="cls-1" d="M18,11V0H0V22H11.09A20,20,0,0,0,11,24h3a10.74,10.74,0,0,1,.17-2,9.51,9.51,0,0,1,.27-1A4.25,4.25,0,0,1,17,18.21,3.2,3.2,0,0,1,18,18v3l6-5Z"/></clipPath><linearGradient id="Paper_Frame" x1="9" y1="22" x2="9" gradientUnits="userSpaceOnUse"><stop offset="0" stop-color="#404040"/><stop offset="0.88" stop-color="#a6a6a6"/></linearGradient><radialGradient id="Paper_Fill_3" cx="-51.32" cy="-15.01" r="24.11" gradientTransform="translate(48.99 16.25) scale(0.91 0.93)" gradientUnits="userSpaceOnUse"><stop offset="0.28" stop-color="#fff"/><stop offset="0.4" stop-color="#f9fafc"/><stop offset="0.56" stop-color="#e8eef2"/><stop offset="0.75" stop-color="#ccd9e2"/><stop offset="0.95" stop-color="#a5bccc"/><stop offset="0.95" stop-color="#a4bbcb"/></radialGradient><linearGradient id="Green_Frame_2" x1="215" y1="-397.5" x2="228" y2="-397.5" gradientTransform="translate(415 239) rotate(-90)" gradientUnits="userSpaceOnUse"><stop offset="0" stop-color="#195c19"/><stop offset="0.41" stop-color="#2d6a2d"/><stop offset="1" stop-color="#6cae40"/></linearGradient><radialGradient id="radial-gradient" cx="227.85" cy="-394.98" r="14.89" gradientTransform="translate(415 239) rotate(-90)" gradientUnits="userSpaceOnUse"><stop offset="0.01" stop-color="#fff"/><stop offset="0.05" stop-color="#f0f8dd"/><stop offset="0.11" stop-color="#def1b7"/><stop offset="0.17" stop-color="#d0eb98"/><stop offset="0.23" stop-color="#c5e67f"/><stop offset="0.29" stop-color="#bde36e"/><stop offset="0.36" stop-color="#b9e163"/><stop offset="0.45" stop-color="#b7e060"/><stop offset="1" stop-color="#4ea43f"/></radialGradient></defs><g class="cls-2"><g id="Layer_2" data-name="Layer 2"><g id="generate_report_from_graph"><g id="generate_report_from_graph_24"><g class="cls-3"><path class="cls-4" d="M18,0H0V22H18V0Z"/><rect class="cls-5" x="1" y="1" width="16" height="20"/><g class="cls-6"><rect class="cls-7" x="3" y="7" width="12" height="1"/><rect class="cls-7" x="3" y="5" width="12" height="1"/><rect class="cls-8" x="3" y="3" width="8" height="1"/><rect class="cls-7" x="3" y="9" width="12" height="1"/></g><rect class="cls-9" x="3" y="11" width="12" height="8"/><polyline class="cls-10" points="3 18 5.57 14.57 7.29 17.14 9.86 12.86 12.43 16.29 15 12"/><path class="cls-11" d="M11,24h3c0-6,4-6,4-6v3l6-5-6-5s0,2,0,3C12,14,11,20,11,24Z"/><path class="cls-12" d="M19,19.12V17c-2,0-6,.92-6,6H12s-1-8,7-8V13l3.5,3Z"/><polygon class="cls-13" points="22.73 15.88 19 13 19 14 22.21 16.38 22.73 15.88"/><path class="cls-13" d="M19,16V15c-7,0-7.11,6.19-7,7.68C12.08,20.4,13.06,16,19,16Z"/></g></g></g></g></g></svg>