<svg xmlns="http://www.w3.org/2000/svg" xmlns:xlink="http://www.w3.org/1999/xlink" viewBox="0 0 24 24"><defs><style>.cls-1{fill:none;}.cls-2{fill:url(#Dark_Green_Gradient_2);}.cls-3{fill:url(#radial-gradient);}.cls-4{clip-path:url(#clip-path);}.cls-5{fill:url(#Shadow_Gradient);}.cls-6{fill:#fff;opacity:0.6;}.cls-7{fill:url(#Dark_Green_Gradient_2-2);}.cls-8{fill:url(#radial-gradient-2);}</style><linearGradient id="Dark_Green_Gradient_2" x1="15.5" y1="20" x2="15.5" y2="3" gradientUnits="userSpaceOnUse"><stop offset="0.02" stop-color="#004700"/><stop offset="1" stop-color="#4f9044"/></linearGradient><radialGradient id="radial-gradient" cx="-112.47" cy="9.84" r="22.55" gradientTransform="translate(107.65 -3.39) scale(0.89 0.92)" gradientUnits="userSpaceOnUse"><stop offset="0.07" stop-color="#fff"/><stop offset="0.46" stop-color="#b7e060"/><stop offset="1" stop-color="#4ea43f"/></radialGradient><clipPath id="clip-path"><path class="cls-1" d="M9.08,3c-.42,0-.72.33-.72.91V18.82c0,.58.3.91.72.91a1.16,1.16,0,0,0,.6-.19l12.78-7.41a.81.81,0,0,0,0-1.53L9.68,3.18A1.24,1.24,0,0,0,9.08,3Z"/></clipPath><linearGradient id="Shadow_Gradient" x1="8.68" y1="21.73" x2="8.68" y2="5" gradientUnits="userSpaceOnUse"><stop offset="0" stop-opacity="0.15"/><stop offset="0.98" stop-opacity="0.45"/></linearGradient><linearGradient id="Dark_Green_Gradient_2-2" x1="7.5" x2="7.5" xlink:href="#Dark_Green_Gradient_2"/><radialGradient id="radial-gradient-2" cx="-121.58" cy="9.84" r="22.55" gradientTransform="translate(107.77 -3.39) scale(0.89 0.92)" xlink:href="#radial-gradient"/></defs><g id="Layer_2" data-name="Layer 2"><g id="run"><g id="continueExecution_24"><rect class="cls-1" width="24" height="24"/><path class="cls-2" d="M8.74,3C8.3,3,8,3.34,8,3.92V19.08c0,.58.3.92.74.92a1.22,1.22,0,0,0,.61-.19l13.09-7.53a.82.82,0,0,0,0-1.56L9.35,3.19A1.22,1.22,0,0,0,8.74,3Z"/><path class="cls-3" d="M9.3,19C9,19,9,18.65,9,18.5V4.5c0-.15,0-.5.3-.5a.7.7,0,0,1,.35.12l11.23,7a.56.56,0,0,1,.32.42.56.56,0,0,1-.32.42l-11.23,7A.7.7,0,0,1,9.3,19Z"/><g class="cls-4"><path class="cls-5" d="M2.08,5c-.42,0-.72.33-.72.91V20.82c0,.58.3.91.72.91a1.16,1.16,0,0,0,.6-.19l12.77-7.41a.81.81,0,0,0,0-1.53L2.68,5.18A1.24,1.24,0,0,0,2.08,5Z"/></g><path class="cls-6" d="M9.29,5.07a.65.65,0,0,1,.34.12L20.41,12l.19-.12a.57.57,0,0,0,.31-.42.57.57,0,0,0-.31-.42l-11-7A.65.65,0,0,0,9.29,4C9,4,9,4.35,9,4.5V5.57C9,5.42,9,5.07,9.29,5.07Z"/><path class="cls-7" d="M.74,3C.3,3,0,3.34,0,3.92V19.08c0,.58.3.92.74.92a1.22,1.22,0,0,0,.61-.19l13.09-7.53a.82.82,0,0,0,0-1.56L1.35,3.19A1.22,1.22,0,0,0,.74,3Z"/><path class="cls-8" d="M1.29,19C1,19,1,18.65,1,18.5V4.5c0-.15,0-.5.29-.5a.72.72,0,0,1,.36.12l11.23,7a.56.56,0,0,1,.32.42.56.56,0,0,1-.32.42l-11.23,7a.72.72,0,0,1-.36.12Z"/><path class="cls-6" d="M1.29,5.07a.72.72,0,0,1,.36.12L12.7,12l.18-.12a.56.56,0,0,0,.32-.42.56.56,0,0,0-.32-.42l-11.23-7A.72.72,0,0,0,1.29,4C1,4,1,4.35,1,4.5V5.57C1,5.42,1,5.07,1.29,5.07Z"/></g></g></g></svg>