<svg id="Layer_1" data-name="Layer 1" xmlns="http://www.w3.org/2000/svg" xmlns:xlink="http://www.w3.org/1999/xlink" viewBox="0 0 24 24"><defs><style>.cls-1{fill:url(#linear-gradient);}.cls-2{fill:url(#radial-gradient);}.cls-3{fill:#fff;opacity:0.6;}</style><linearGradient id="linear-gradient" x1="12.5" y1="23" x2="12.5" y2="1" gradientUnits="userSpaceOnUse"><stop offset="0.02" stop-color="#004700"/><stop offset="1" stop-color="#3f7c33"/></linearGradient><radialGradient id="radial-gradient" cx="-74.23" cy="-9.58" r="29.14" gradientTransform="translate(69.8 13.16) scale(0.92 0.93)" gradientUnits="userSpaceOnUse"><stop offset="0.07" stop-color="#fff"/><stop offset="0.46" stop-color="#b7e060"/><stop offset="1" stop-color="#4ea43f"/></radialGradient></defs><path class="cls-1" d="M3.94,1C3.38,1,3,1.44,3,2.19V21.81c0,.75.38,1.19.94,1.19a1.65,1.65,0,0,0,.78-.24L21.29,13a1.07,1.07,0,0,0,0-2L4.72,1.24A1.65,1.65,0,0,0,3.94,1Z"/><path class="cls-2" d="M4.4,22C4,22,4,21.53,4,21.33V2.67C4,2.47,4,2,4.4,2a1,1,0,0,1,.48.16l15.18,9.28c.27.17.64.37.64.56s-.37.39-.64.56L4.88,21.84A1,1,0,0,1,4.4,22Z"/><path class="cls-3" d="M4.4,3a1,1,0,0,1,.48.16l15.18,9.28.1.06c.25-.15.54-.33.54-.5s-.37-.39-.64-.56L4.88,2.16A1,1,0,0,0,4.4,2C4,2,4,2.47,4,2.67v1C4,3.47,4,3,4.4,3Z"/></svg>