<svg xmlns="http://www.w3.org/2000/svg" xmlns:xlink="http://www.w3.org/1999/xlink" viewBox="0 0 24 24"><defs><style>.cls-1{fill:url(#radial-gradient);}.cls-2{fill:url(#linear-gradient);}.cls-3{opacity:0.6;}.cls-4{fill:#fff;}.cls-5{fill:url(#linear-gradient-2);}.cls-6{fill:none;}</style><radialGradient id="radial-gradient" cx="11.75" cy="3" r="19.75" gradientUnits="userSpaceOnUse"><stop offset="0.23" stop-color="#f2f2f2"/><stop offset="0.64" stop-color="#e5e5e4"/><stop offset="0.89" stop-color="#a6a4a4"/><stop offset="1" stop-color="gray"/></radialGradient><linearGradient id="linear-gradient" x1="12" y1="23" x2="12" y2="1" gradientUnits="userSpaceOnUse"><stop offset="0" stop-color="#575757"/><stop offset="0.91" stop-color="#9e9e9e"/></linearGradient><linearGradient id="linear-gradient-2" x1="12" y1="8" x2="12" y2="16" gradientUnits="userSpaceOnUse"><stop offset="0.11" stop-color="#1a1a1a"/><stop offset="1" stop-color="#67686b"/></linearGradient></defs><g id="Layer_2" data-name="Layer 2"><g id="stopSimulation"><g id="stopSimulation_24"><g id="stop_24"><path class="cls-1" d="M12,22.5A10.5,10.5,0,1,1,22.5,12,10.51,10.51,0,0,1,12,22.5Z"/><path class="cls-2" d="M12,2A10,10,0,1,1,2,12,10,10,0,0,1,12,2m0-1A11,11,0,1,0,23,12,11,11,0,0,0,12,1Z"/><g class="cls-3"><rect class="cls-4" x="8" y="9" width="8" height="8"/></g><rect class="cls-5" x="8" y="8" width="8" height="8"/><path class="cls-4" d="M12,2.94A10.08,10.08,0,0,1,22,12c0-.22,0-.44,0-.67C22,6.19,17.51,2,12,2S2,6.19,2,11.33c0,.23,0,.45,0,.67A10.08,10.08,0,0,1,12,2.94Z"/><rect class="cls-6" width="24" height="24"/><rect class="cls-6" width="24" height="24"/></g></g></g></g></svg>